<?xml version="1.0" encoding="utf-8"?>
<!-- Generator: Adobe Illustrator 25.0.0, SVG Export Plug-In . SVG Version: 6.00 Build 0)  -->
<svg version="1.1" id="Capa_1" xmlns="http://www.w3.org/2000/svg" xmlns:xlink="http://www.w3.org/1999/xlink" x="0px" y="0px"
	 viewBox="0 0 240 240" style="enable-background:new 0 0 240 240;" xml:space="preserve">
<style type="text/css">
	.st0{fill:#FFA50F;}
	.st1{fill:#FF3B30;}
</style>
<g>
	<path class="st0" d="M24.32,105.22c-1.96-7.31,0.13-15.1,5.48-20.45L84.5,30c5.36-5.32,13.16-7.38,20.45-5.41l51.26,13.73
		c0.53-7.02,2.97-13.77,7.07-19.5l-61.73-16.6c-9.01-2.42-18.63,0.16-25.23,6.76l-67.6,67.6c-6.6,6.6-9.17,16.22-6.76,25.23
		l17.2,64.09c5.63-4.31,12.33-7,19.38-7.75L24.32,105.22z M200.13,79.6l14.66,54.8c1.96,7.31-0.13,15.1-5.48,20.45l-54.77,54.77
		c-5.35,5.31-13.12,7.37-20.4,5.43l-52.97-14.21c-0.75,7.05-3.44,13.75-7.75,19.38l64.1,17.17c9.02,2.41,18.64-0.16,25.25-6.76
		l67.59-67.6c6.6-6.6,9.17-16.22,6.76-25.23l-17.83-66.54C213.78,75.75,207.16,78.63,200.13,79.6L200.13,79.6z"/>
	<path class="st1" d="M20.66,174.76c-12.18,12.11-12.24,31.8-0.13,43.98s31.8,12.24,43.98,0.13c12.18-12.11,12.24-31.8,0.13-43.98
		c-5.83-5.86-13.75-9.16-22.02-9.17C34.39,165.7,26.49,168.95,20.66,174.76z M172.9,19.36c-12.13,12.09-12.16,31.72-0.08,43.85
		s31.72,12.16,43.85,0.08s12.16-31.72,0.08-43.85c-5.8-5.82-13.67-9.1-21.89-9.12C186.63,10.3,178.73,13.55,172.9,19.36z
		 M137.74,202.07c-1.25,0-2.49-0.16-3.7-0.48l-48.5-13c-3.32-17.67-17.15-31.48-34.82-34.79l-13-48.53
		c-1.3-4.92,0.1-10.16,3.7-13.77L91.2,41.71c1.79-1.78,4.02-3.05,6.46-3.68c2.42-0.66,4.97-0.66,7.39,0l47.15,12.62
		c3.83,17.57,18.04,30.98,35.8,33.8l13.32,49.88c1.32,4.92-0.09,10.17-3.68,13.79l-49.8,49.78c-2.66,2.68-6.3,4.19-10.08,4.17
		H137.74z"/>
</g>
</svg>
